<?xml version="1.0" encoding="utf-8"?>
<!-- Generator: Adobe Illustrator 22.1.0, SVG Export Plug-In . SVG Version: 6.00 Build 0)  -->
<svg version="1.1" id="Capa_1" xmlns="http://www.w3.org/2000/svg" xmlns:xlink="http://www.w3.org/1999/xlink" x="0px" y="0px"
	 viewBox="0 0 100 100" style="enable-background:new 0 0 100 100;" xml:space="preserve">
<g>
	<polygon style="fill:#E73C48;" points="72.2,24.7 40.5,56.4 23.2,39 13.9,48.3 31.3,65.6 31.3,65.6 40.5,74.9 81.6,33.9 	"/>
	<g>
		<g>
			<polygon style="fill:#4A4A49;" points="18.2,31.8 11,31.8 11,11.7 31.1,11.7 31.1,18.8 18.2,18.8 			"/>
		</g>
		<g>
			<polygon style="fill:#4A4A49;" points="68.9,18.8 68.9,11.7 89,11.7 89,31.8 81.9,31.8 81.9,18.8 			"/>
		</g>
		<g>
			<polygon style="fill:#4A4A49;" points="81.9,70 89,70 89,90.1 68.9,90.1 68.9,82.9 81.9,82.9 			"/>
		</g>
		<g>
			<polygon style="fill:#4A4A49;" points="31.1,82.9 31.1,90.1 11,90.1 11,70 18.2,70 18.2,82.9 			"/>
		</g>
	</g>
</g>
</svg>
