<?xml version="1.0" encoding="utf-8"?>
<!-- Generator: Adobe Illustrator 22.1.0, SVG Export Plug-In . SVG Version: 6.00 Build 0)  -->
<svg version="1.1" id="Capa_1" xmlns="http://www.w3.org/2000/svg" xmlns:xlink="http://www.w3.org/1999/xlink" x="0px" y="0px"
	 viewBox="0 0 100 100" style="enable-background:new 0 0 100 100;" xml:space="preserve">
<path style="fill:#E73C48;" d="M50.7,86.9c-19.5,0-35.4-15.9-35.4-35.4C15.3,31.9,31.2,16,50.7,16c19.5,0,35.4,15.9,35.4,35.4
	C86.1,71,70.2,86.9,50.7,86.9z M50.7,23.2c-15.6,0-28.2,12.7-28.2,28.2c0,15.6,12.7,28.2,28.2,28.2c15.6,0,28.2-12.7,28.2-28.2
	C78.9,35.9,66.3,23.2,50.7,23.2z"/>
<g>
	<g>
		<path style="fill:#4A4A49;" d="M91.8,57.8c0.1-0.8,0.2-1.7,0.3-2.6c1.5-0.9,4.3-1.8,6.9,0.8c0-7-4.8-8.7-6.9-9.1
			c-0.1-0.9-0.2-1.7-0.4-2.6c1.2-1.2,3.7-2.9,6.8-1.1c-1.8-6.7-6.9-7.1-9-6.9c-0.3-0.8-0.6-1.6-1-2.4c0.9-1.5,2.8-3.7,6.3-2.8
			c-3.5-6-8.5-5.1-10.5-4.4c-0.5-0.7-1-1.4-1.6-2c0.4-1.7,1.7-4.3,5.4-4.3c-4.9-4.9-9.5-2.7-11.3-1.5c-0.7-0.5-1.4-1.1-2.1-1.5
			c0-1.7,0.5-4.6,4.1-5.6c-6-3.5-9.9-0.2-11.3,1.5c-0.8-0.3-1.6-0.7-2.4-1c-0.4-1.7-0.7-4.6,2.5-6.4c-6.7-1.8-9.6,2.4-10.5,4.4
			c-0.8-0.1-1.7-0.2-2.6-0.3c-0.9-1.5-1.9-4.3,0.8-6.9c-7,0-8.6,4.8-9.1,6.9c-0.9,0.1-1.7,0.2-2.5,0.4c-1.2-1.2-2.9-3.7-1.1-6.8
			c-6.7,1.8-7.1,6.9-6.9,9c-0.8,0.3-1.6,0.6-2.4,1c-1.5-0.8-3.7-2.8-2.8-6.3c-6,3.5-5.1,8.5-4.4,10.5c-0.7,0.5-1.4,1-2,1.6
			c-1.7-0.4-4.3-1.7-4.3-5.4c-4.9,4.9-2.7,9.5-1.5,11.3c-0.5,0.7-1,1.4-1.5,2.1c-1.7,0-4.6-0.5-5.6-4.1c-3.5,6-0.2,9.9,1.5,11.3
			c-0.3,0.8-0.7,1.6-1,2.4c-1.7,0.4-4.6,0.7-6.4-2.5C3.4,41.2,7.6,44.1,9.6,45c-0.1,0.8-0.2,1.7-0.3,2.6c-1.5,0.9-4.3,1.9-6.9-0.8
			c0,7,4.8,8.7,6.9,9.1c0.1,0.9,0.2,1.7,0.4,2.6c-1.2,1.2-3.7,2.9-6.8,1.1c1.8,6.7,6.9,7.1,9,7c0.3,0.8,0.6,1.6,1,2.4
			c-0.9,1.5-2.8,3.7-6.3,2.8c3.5,6,8.5,5.1,10.5,4.4c0.5,0.7,1,1.4,1.6,2c-0.4,1.7-1.7,4.3-5.4,4.3c4.9,4.9,9.5,2.7,11.3,1.5
			c0.7,0.5,1.4,1.1,2,1.5c0,1.7-0.5,4.6-4.1,5.6c6,3.5,9.9,0.2,11.3-1.5c0.8,0.3,1.6,0.7,2.4,1c0.4,1.7,0.7,4.6-2.5,6.4
			c6.7,1.8,9.6-2.4,10.5-4.4c0.8,0.1,1.7,0.2,2.6,0.3c0.9,1.5,1.9,4.3-0.8,6.9c7,0,8.6-4.8,9.1-6.9c0.9-0.1,1.7-0.2,2.6-0.4
			c1.2,1.2,2.9,3.7,1.1,6.8c6.7-1.8,7.1-6.9,6.9-9c0.8-0.3,1.6-0.6,2.4-1c1.5,0.9,3.7,2.8,2.8,6.3c6-3.5,5.1-8.5,4.4-10.5
			c0.7-0.5,1.4-1,2-1.6c1.7,0.4,4.3,1.7,4.3,5.4c4.9-4.9,2.7-9.5,1.5-11.3c0.5-0.7,1.1-1.4,1.6-2.1c1.7,0,4.6,0.5,5.6,4.1
			c3.5-6,0.2-9.9-1.5-11.3c0.3-0.8,0.7-1.6,1-2.4c1.7-0.4,4.6-0.7,6.4,2.5C98,61.6,93.8,58.8,91.8,57.8z M50.7,86.4
			c-19.3,0-35-15.7-35-35s15.7-35,35-35c19.3,0,35,15.7,35,35S70,86.4,50.7,86.4z"/>
	</g>
</g>
</svg>
