<?xml version="1.0" encoding="utf-8"?>
<!-- Generator: Adobe Illustrator 22.1.0, SVG Export Plug-In . SVG Version: 6.00 Build 0)  -->
<svg version="1.1" id="Capa_1" xmlns="http://www.w3.org/2000/svg" xmlns:xlink="http://www.w3.org/1999/xlink" x="0px" y="0px"
	 viewBox="0 0 100 100" style="enable-background:new 0 0 100 100;" xml:space="preserve">
<g>
	<polygon style="fill:#E73C48;" points="72.4,32.9 70.1,34.8 97,57.5 97,55.6 97,53.7 	"/>
	<polygon style="fill:#E73C48;" points="65.6,38.6 97,65.1 97,63.2 97,61.3 67.9,36.7 	"/>
	<polygon style="fill:#E73C48;" points="61.1,42.4 97,72.7 97,70.8 97,68.9 63.4,40.5 	"/>
	<polygon style="fill:#E73C48;" points="56.6,46.2 97,80.3 97,78.4 97,76.5 58.9,44.3 	"/>
	<g>
		<polygon style="fill:#4A4A49;" points="49.8,13.9 49.8,13.9 2.6,53.7 2.6,55.6 2.6,57.5 49.8,17.7 49.8,17.7 67.8,32.9 70,31 		
			"/>
		<polygon style="fill:#4A4A49;" points="49.8,21.5 2.6,61.3 2.6,63.2 2.6,65.1 49.8,25.3 49.8,25.3 63.3,36.7 65.5,34.8 49.8,21.5 
					"/>
		<polygon style="fill:#4A4A49;" points="49.8,29.1 2.6,68.9 2.6,70.8 2.6,72.7 49.8,32.9 49.8,32.9 58.8,40.5 61,38.5 49.8,29.1 		
			"/>
		<polygon style="fill:#4A4A49;" points="49.8,36.6 2.6,76.5 2.6,78.4 2.6,80.3 49.8,40.5 49.8,40.5 54.3,44.2 56.5,42.3 49.8,36.6 
					"/>
		<polygon style="fill:#4A4A49;" points="49.8,44.2 2.6,84.1 2.6,86 2.6,87.9 49.8,48 49.8,48 52,46.1 49.8,44.2 		"/>
	</g>
	<polygon style="fill:#E73C48;" points="52.1,50 97,87.9 97,86 97,84.1 54.4,48.1 	"/>
</g>
</svg>
