<?xml version="1.0" encoding="utf-8"?>
<!-- Generator: Adobe Illustrator 22.1.0, SVG Export Plug-In . SVG Version: 6.00 Build 0)  -->
<svg version="1.1" id="Capa_1" xmlns="http://www.w3.org/2000/svg" xmlns:xlink="http://www.w3.org/1999/xlink" x="0px" y="0px"
	 viewBox="0 0 43 13.8" style="enable-background:new 0 0 43 13.8;" xml:space="preserve">
<style type="text/css">
	.st0{fill:#E32213;}
	.st1{fill:#FFFFFF;}
</style>
<title>eurolam_logo</title>
<g id="Capa_2_1_">
	<g id="object">
		<path class="st0" d="M3.7,7.1c5.9-1.8,11.8-3.6,17.7-5.4l2.5,5.6h0.3l-2.5-5.7c0.1,0,0.2-0.1,0.3-0.1c0.1,0.1,0.1,0.2,0.2,0.4
			l2.4,5.4h0.3l-2.4-5.4c0-0.1-0.1-0.2-0.2-0.3c0.3,0,0.5,0.2,0.7,0.7c0.6,1.5,2.2,5.1,2.2,5.1h0.3c0,0-1.6-3.7-2.3-5.2
			c-0.3-0.6-0.6-0.9-1.1-0.8C21.9,1.1,21.6,1,21.3,1c-0.3-0.3-0.7-0.4-1.5-0.1C13.9,2.7,7.9,4.5,2,6.3C1.2,6.6,1,6.9,1.3,7.5
			C1.5,8,1.6,8.4,1.8,8.9C2,9.3,2.2,9.8,2.4,10.2c0.1,0.3,0.4,0.5,0.7,0.5l0-0.2c-0.2,0-0.4-0.2-0.5-0.4C2.5,9.7,2.3,9.3,2.1,8.8
			C1.9,8.4,1.7,7.9,1.5,7.5S1.4,6.7,2,6.5C8,4.7,14,2.9,19.9,1.1c0.6-0.2,0.8-0.2,1.1,0l-0.3,0.1C14.7,3,8.7,4.8,2.8,6.6
			C2,6.8,1.8,7.2,2.1,7.8c0.2,0.4,0.4,0.9,0.6,1.3s0.4,0.9,0.6,1.4C3.3,10.8,3.6,11,3.9,11l0.1-0.2c-0.2,0-0.4-0.2-0.5-0.4
			C3.3,10,3.1,9.5,2.9,9.1C2.8,8.6,2.6,8.2,2.4,7.7C2.2,7.3,2.3,7,2.9,6.8c6-1.8,11.9-3.6,17.9-5.4c0.1,0,0.3-0.1,0.4-0.1
			c0,0.1,0.1,0.2,0.1,0.2C15.4,3.3,9.5,5.1,3.6,6.9C2.8,7.1,2.6,7.5,2.9,8.1C3.1,8.6,3.3,9,3.5,9.4c0.2,0.4,0.4,0.9,0.6,1.4
			c0.1,0.3,0.4,0.5,0.7,0.5l0-0.2c-0.2,0-0.4-0.2-0.5-0.4c-0.2-0.5-0.4-0.9-0.6-1.4C3.5,8.9,3.3,8.5,3.2,8C3,7.6,3.1,7.3,3.7,7.1z
			 M21.8,1.4c-0.1,0-0.2,0-0.3,0.1c0-0.1-0.1-0.1-0.1-0.2C21.6,1.3,21.7,1.3,21.8,1.4z"/>
		<path class="st1" d="M6.6,10.8L6.6,10.8l-0.1,0.7c0,0.2,0,0.3,0.1,0.5C6.8,12,6.9,12.1,7.1,12H10v1.1H6.8c-0.3,0-0.5,0-0.8-0.1
			c-0.2-0.1-0.4-0.2-0.5-0.3c-0.1-0.1-0.2-0.3-0.3-0.5c-0.1-0.2-0.1-0.4-0.1-0.7v-0.8c0-0.2,0-0.4,0.1-0.7c0-0.2,0.1-0.4,0.3-0.6
			c0.1-0.1,0.3-0.3,0.5-0.3C6.3,9,6.6,9,6.8,9h2.4c0.2,0,0.5,0.1,0.7,0.2c0.2,0.2,0.2,0.5,0.2,0.8v0.4c0,0.3-0.1,0.5-0.2,0.7
			c-0.2,0.2-0.4,0.3-0.7,0.3H6.8L6.6,10.8z M6.5,10.6h2c0.2,0,0.2-0.1,0.2-0.2v-0.1c0-0.1,0-0.2-0.1-0.2c0,0-0.1,0-0.1,0H7.1
			c-0.2,0-0.3,0-0.4,0.1C6.6,10.2,6.5,10.4,6.5,10.6L6.5,10.6z"/>
		<path class="st1" d="M10.6,9H12v2.3c0,0.2,0,0.3,0.1,0.5c0.1,0.1,0.3,0.1,0.5,0.1h1.2c0.2,0,0.4,0,0.5-0.1
			c0.1-0.1,0.2-0.3,0.1-0.5V9h1.4v2.5c0,0.2,0,0.4-0.1,0.7c-0.1,0.2-0.2,0.4-0.3,0.5c-0.1,0.1-0.3,0.3-0.5,0.3
			c-0.3,0.1-0.5,0.1-0.8,0.1h-1.8c-0.3,0-0.5,0-0.8-0.1c-0.2-0.1-0.4-0.2-0.5-0.3c-0.1-0.1-0.2-0.3-0.3-0.5
			c-0.1-0.2-0.1-0.4-0.1-0.7L10.6,9z"/>
		<path class="st1" d="M19.9,10.7L19.9,10.7l0-0.6c0,0,0-0.1-0.1-0.1c0,0,0,0,0,0h-1.6c-0.1,0-0.2,0-0.3,0.1
			c-0.1,0.1-0.1,0.2-0.1,0.3v2.6h-1.3v-2.9c0-0.3,0.1-0.6,0.3-0.8C16.9,9.1,17.3,9,17.6,9h3.3c0.1,0,0.2,0.1,0.2,0.2v1L19.9,10.7z"
			/>
		<path class="st1" d="M26.8,11.5c0,0.2,0,0.4-0.1,0.7c-0.1,0.2-0.2,0.4-0.3,0.5c-0.1,0.1-0.3,0.3-0.5,0.3c-0.2,0.1-0.5,0.1-0.8,0.1
			h-1.9c-0.3,0-0.5,0-0.8-0.1c-0.2-0.1-0.4-0.2-0.5-0.3c-0.1-0.1-0.2-0.3-0.3-0.5c-0.1-0.2-0.1-0.4-0.1-0.7v-0.8
			c0-0.2,0-0.4,0.1-0.7c0-0.2,0.1-0.4,0.3-0.5c0.1-0.1,0.3-0.3,0.5-0.3C22.6,9,22.9,9,23.2,9h2c0.3,0,0.5,0,0.8,0.1
			c0.2,0.1,0.4,0.2,0.5,0.3c0.1,0.1,0.2,0.3,0.3,0.5c0.1,0.2,0.1,0.4,0.1,0.7L26.8,11.5z M24.9,11.9c0.2,0,0.3,0,0.4-0.1
			c0.1-0.1,0.2-0.3,0.1-0.5v-0.6c0-0.2,0-0.4-0.1-0.5c-0.1-0.1-0.3-0.2-0.4-0.1h-1.5c-0.2,0-0.3,0-0.4,0.1c-0.1,0.1-0.1,0.3-0.1,0.5
			v0.6c0,0.2,0,0.3,0.1,0.5c0.1,0.1,0.3,0.1,0.4,0.1L24.9,11.9z"/>
		<path class="st0" d="M27.4,13.1V7.3h1.4v5.8H27.4z"/>
		<path class="st0" d="M29.4,10V9h3.8c0.2,0,0.4,0.1,0.6,0.2C33.9,9.4,34,9.7,34,9.9v3c0,0.1-0.1,0.2-0.2,0.2h-3.5
			c-0.1,0-0.3,0-0.4-0.1c-0.1,0-0.2-0.1-0.3-0.2c-0.1-0.1-0.2-0.2-0.2-0.4c0-0.2-0.1-0.4-0.1-0.5v-0.3c0-0.3,0.1-0.6,0.2-0.8
			c0.2-0.2,0.4-0.3,0.7-0.3h2.1l0.3,0.6l0,0v-0.8c0-0.1,0-0.2-0.1-0.2C32.4,10,32.4,10,32.3,10L29.4,10z M32.5,12
			C32.5,12,32.6,12,32.5,12l0.1-0.7h-1.8c-0.1,0-0.1,0-0.2,0.1c0,0.1-0.1,0.1,0,0.2v0.2c0,0.1,0,0.1,0,0.2c0,0.1,0.1,0.1,0.2,0.1
			H32.5z"/>
		<path class="st0" d="M38.8,9h2.1c0.3,0,0.5,0,0.8,0.1c0.2,0.1,0.4,0.2,0.5,0.3c0.1,0.1,0.2,0.3,0.3,0.5c0.1,0.2,0.1,0.4,0.1,0.7
			v2.5h-1.4v-2.4c0-0.2,0-0.3-0.1-0.5c-0.1-0.1-0.3-0.2-0.4-0.1h-1.3c0.1,0.2,0.1,0.4,0.1,0.6v2.5h-1.3v-2.4c0-0.2,0-0.3-0.1-0.5
			c-0.1-0.1-0.3-0.2-0.4-0.1h-1.3L36,9.5l0,0v3.6h-1.4V9h3.2c0.2,0,0.5,0,0.7,0.1c0.2,0.1,0.3,0.2,0.5,0.3l0,0
			c0-0.1-0.1-0.1-0.1-0.2L38.8,9L38.8,9z"/>
	</g>
</g>
</svg>
