<?xml version="1.0" encoding="utf-8"?>
<!-- Generator: Adobe Illustrator 22.1.0, SVG Export Plug-In . SVG Version: 6.00 Build 0)  -->
<svg version="1.1" id="Capa_1" xmlns="http://www.w3.org/2000/svg" xmlns:xlink="http://www.w3.org/1999/xlink" x="0px" y="0px"
	 viewBox="0 0 129 76" style="enable-background:new 0 0 129 76;" xml:space="preserve">
<path style="fill:#E32213;" d="M110.4,7.1c1.1,0.5,1.9,1.8,2.8,4.6c3.2,9.9,6.5,19.8,9.7,29.7l4.6,14l0.9-0.3l-4.6-14
	c-3.2-9.9-6.5-19.8-9.7-29.7c-1-3.1-2-4.6-3.3-5.2c-0.7-0.3-1.4-0.4-2.4-0.3c-0.5-0.8-1.1-1.4-1.8-1.7c-0.7-0.3-1.4-0.4-2.4-0.3
	c-0.5-0.8-1.1-1.4-1.8-1.7c-1.3-0.6-3-0.4-5.6,0.7C63.8,16.3,30.6,29.8,5.4,40.1C1.7,41.6,0.8,43.8,2,48C3,51,4,54.1,4.9,57.1
	c1,3,2,6.2,2.9,9.3c0.6,2,1.6,3.1,3.2,3.3l0.2-1c-1.2-0.2-2-1-2.5-2.7c-0.9-3.1-1.9-6.3-2.9-9.3c-1-3-2-6.1-2.9-9.1
	C1.9,44,2.5,42.3,5.8,41C31,30.7,64.2,17.2,97.3,3.8c2.3-0.9,3.8-1.1,4.8-0.7c0.4,0.2,0.8,0.5,1.1,1c-0.6,0.2-1.3,0.4-2.2,0.7
	c-31.8,12.9-64.1,26-91.5,37.2c-3.7,1.5-4.6,3.7-3.4,7.9C7.1,53,8.1,56,9.1,59c1,3,2,6.2,2.9,9.3c0.6,2,1.6,3.1,3.2,3.3l0.2-1
	c-1.2-0.2-2-1-2.5-2.7c-0.9-3.1-2-6.3-2.9-9.3c-1-3-1.9-6-2.9-9.1C6,45.9,6.7,44.3,9.9,43c27.4-11.2,59.7-24.3,91.5-37.2
	c0.9-0.4,1.7-0.6,2.3-0.8c0.3,0.5,0.6,1.2,0.9,2C72.7,20,40.8,33,13.7,44c-3.7,1.5-4.6,3.7-3.4,7.9c0.9,3,1.9,6.1,2.9,9.1
	c1,3.1,2,6.2,2.9,9.3c0.6,2,1.6,3.1,3.2,3.3l0.2-1c-1.2-0.2-2-1-2.5-2.7c-0.9-3.1-2-6.3-2.9-9.3c-1-3-1.9-6-2.9-9.1
	c-1.1-3.7-0.4-5.3,2.8-6.6c27-11,58.9-24,90.8-36.9c3.2,9.7,6.3,19.3,9.5,29l6.1,18.5l1-0.3l-6.1-18.5c-3.2-9.7-6.4-19.4-9.5-29.1
	c0.8-0.3,1.5-0.5,2-0.7c0.4,0.7,0.7,1.6,1.1,2.7c3.1,9.5,6.2,19,9.3,28.4l5.6,17.1l1-0.3l-5.6-17.1c-3.1-9.5-6.2-19-9.3-28.4
	c-0.3-1-0.7-1.9-1-2.6C109.5,6.8,110,6.9,110.4,7.1z M105.5,6.7c-0.2-0.7-0.5-1.3-0.8-1.8c0.6,0,1,0.1,1.4,0.2
	c0.4,0.2,0.8,0.5,1.2,1C106.8,6.2,106.2,6.4,105.5,6.7z"/>
</svg>
