<?xml version="1.0" encoding="utf-8"?>
<!-- Generator: Adobe Illustrator 22.1.0, SVG Export Plug-In . SVG Version: 6.00 Build 0)  -->
<svg version="1.1" id="Capa_1" xmlns="http://www.w3.org/2000/svg" xmlns:xlink="http://www.w3.org/1999/xlink" x="0px" y="0px"
	 viewBox="0 0 42.9 12.8" style="enable-background:new 0 0 42.9 12.8;" xml:space="preserve">
<style type="text/css">
	.st0{fill:#E32213;}
	.st1{fill:#7F7771;}
</style>
<title>eurolam_logo_1</title>
<g id="Capa_2_1_">
	<g id="object">
		<path class="st0" d="M3.3,6.2c5.9-1.8,11.8-3.6,17.7-5.4l2.5,5.6h0.3l-2.5-5.7c0.1,0,0.2-0.1,0.3-0.1c0.1,0.1,0.1,0.2,0.2,0.4
			l2.4,5.4h0.3L22.1,1c0-0.1-0.1-0.2-0.2-0.3c0.3,0,0.5,0.2,0.7,0.7c0.6,1.5,2.2,5.1,2.2,5.1h0.3c0,0-1.6-3.7-2.3-5.2
			c-0.3-0.6-0.6-0.9-1.1-0.8c-0.2-0.2-0.5-0.3-0.8-0.3c-0.3-0.3-0.7-0.4-1.5-0.1c-6,1.8-11.9,3.6-17.9,5.4C0.9,5.6,0.7,6,0.9,6.6
			C1.1,7.1,1.3,7.5,1.5,8s0.4,0.9,0.6,1.4c0.1,0.3,0.4,0.5,0.7,0.5l0-0.2c-0.2,0-0.4-0.2-0.5-0.4C2.1,8.8,1.9,8.3,1.8,7.9
			C1.6,7.4,1.4,7,1.2,6.5C1,6.1,1.1,5.8,1.7,5.6c6-1.8,11.9-3.6,17.9-5.4c0.6-0.2,0.8-0.2,1.1,0l-0.3,0.1c-6,1.8-11.9,3.6-17.9,5.4
			C1.7,5.9,1.5,6.3,1.8,6.9c0.2,0.4,0.4,0.9,0.6,1.3c0.2,0.4,0.4,0.9,0.6,1.4c0.1,0.3,0.4,0.5,0.7,0.5l0.1-0.2
			c-0.2,0-0.4-0.2-0.5-0.4C3,9.1,2.8,8.6,2.6,8.2C2.4,7.7,2.2,7.3,2,6.8C1.9,6.4,2,6.1,2.6,5.9c6-1.8,11.9-3.6,17.9-5.4
			c0.1,0,0.3-0.1,0.4-0.1c0,0.1,0.1,0.2,0.1,0.2C15.1,2.4,9.2,4.2,3.2,6C2.5,6.2,2.3,6.6,2.6,7.2c0.2,0.4,0.4,0.9,0.6,1.3
			C3.3,9,3.5,9.4,3.7,9.9c0.1,0.3,0.4,0.5,0.7,0.5l0-0.2C4.2,10.2,4,10,3.9,9.8C3.8,9.4,3.6,8.9,3.4,8.4C3.2,8,3,7.6,2.8,7.1
			C2.6,6.7,2.7,6.4,3.3,6.2z M21.5,0.5c-0.1,0-0.2,0-0.3,0.1c0-0.1-0.1-0.1-0.1-0.2C21.3,0.3,21.4,0.4,21.5,0.5z"/>
		<path class="st1" d="M6.2,9.9L6.2,9.9l-0.1,0.7c0,0.2,0,0.3,0.1,0.5c0.1,0.1,0.3,0.1,0.4,0.1h2.9v1.1H6.5c-0.3,0-0.5,0-0.8-0.1
			c-0.2-0.1-0.4-0.2-0.5-0.3c-0.1-0.1-0.2-0.3-0.3-0.5c-0.1-0.2-0.1-0.4-0.1-0.7V9.7c0-0.2,0-0.4,0.1-0.7c0-0.2,0.1-0.4,0.3-0.6
			c0.1-0.1,0.3-0.3,0.5-0.3C6,8.1,6.3,8.1,6.5,8.1h2.4c0.2,0,0.5,0.1,0.7,0.2c0.2,0.2,0.2,0.5,0.2,0.8v0.5c0,0.3-0.1,0.5-0.2,0.7
			c-0.2,0.2-0.4,0.3-0.7,0.3H6.4L6.2,9.9z M6.2,9.6h2c0.2,0,0.2-0.1,0.2-0.2V9.3c0-0.1,0-0.2-0.1-0.2c0,0-0.1,0-0.1,0H6.8
			c-0.2,0-0.3,0-0.4,0.1C6.2,9.3,6.2,9.5,6.2,9.6L6.2,9.6z"/>
		<path class="st1" d="M10.3,8.1h1.3v2.3c0,0.2,0,0.3,0.1,0.5c0.1,0.1,0.3,0.1,0.5,0.1h1.2c0.2,0,0.4,0,0.5-0.1
			c0.1-0.1,0.2-0.3,0.1-0.5V8.1h1.4v2.5c0,0.2,0,0.4-0.1,0.7c-0.1,0.2-0.2,0.4-0.3,0.5c-0.1,0.1-0.3,0.3-0.5,0.3
			c-0.3,0.1-0.5,0.1-0.8,0.1h-1.8c-0.3,0-0.5,0-0.8-0.1c-0.2-0.1-0.4-0.2-0.5-0.3c-0.1-0.1-0.2-0.3-0.3-0.5
			c-0.1-0.2-0.1-0.4-0.1-0.7L10.3,8.1z"/>
		<path class="st1" d="M19.5,9.8L19.5,9.8l0-0.6c0,0,0-0.1-0.1-0.1c0,0,0,0,0,0h-1.6c-0.1,0-0.2,0-0.3,0.1c-0.1,0.1-0.1,0.2-0.1,0.3
			v2.6h-1.3V9.3c0-0.3,0.1-0.6,0.3-0.8c0.2-0.2,0.5-0.3,0.9-0.3h3.3c0.1,0,0.2,0.1,0.2,0.2v1L19.5,9.8z"/>
		<path class="st1" d="M26.4,10.6c0,0.2,0,0.4-0.1,0.7c-0.1,0.2-0.2,0.4-0.3,0.5c-0.1,0.1-0.3,0.3-0.5,0.3c-0.2,0.1-0.5,0.1-0.8,0.1
			h-1.9c-0.3,0-0.5,0-0.8-0.1c-0.2-0.1-0.4-0.2-0.5-0.3c-0.1-0.1-0.2-0.3-0.3-0.5c-0.1-0.2-0.1-0.4-0.1-0.7V9.7c0-0.2,0-0.4,0.1-0.7
			c0-0.2,0.1-0.4,0.3-0.5c0.1-0.1,0.3-0.3,0.5-0.3c0.2-0.1,0.5-0.1,0.8-0.1h2c0.3,0,0.5,0,0.8,0.1c0.2,0.1,0.4,0.2,0.5,0.3
			c0.1,0.1,0.2,0.3,0.3,0.5c0.1,0.2,0.1,0.4,0.1,0.7L26.4,10.6z M24.5,11c0.2,0,0.3,0,0.4-0.1c0.1-0.1,0.2-0.3,0.1-0.5V9.8
			c0-0.2,0-0.4-0.1-0.5c-0.1-0.1-0.3-0.2-0.4-0.1h-1.5c-0.2,0-0.3,0-0.4,0.1c-0.1,0.1-0.1,0.3-0.1,0.5v0.6c0,0.2,0,0.3,0.1,0.5
			c0.1,0.1,0.3,0.1,0.4,0.1L24.5,11z"/>
		<path class="st0" d="M27.1,12.2V6.4h1.4v5.8H27.1z"/>
		<path class="st0" d="M29.1,9.1v-1h3.8c0.2,0,0.4,0.1,0.6,0.2c0.1,0.2,0.2,0.4,0.2,0.6v3c0,0.1-0.1,0.2-0.2,0.2h-3.5
			c-0.1,0-0.3,0-0.4-0.1c-0.1,0-0.2-0.1-0.3-0.2c-0.1-0.1-0.2-0.2-0.2-0.4c0-0.2-0.1-0.4-0.1-0.5v-0.3c0-0.3,0.1-0.6,0.2-0.8
			c0.2-0.2,0.4-0.3,0.7-0.3H32l0.3,0.6l0,0V9.4c0-0.1,0-0.2-0.1-0.2c-0.1-0.1-0.1-0.1-0.2-0.1L29.1,9.1z M32.2,11.1
			C32.2,11.1,32.3,11.1,32.2,11.1l0.1-0.7h-1.8c-0.1,0-0.1,0-0.2,0.1c0,0.1-0.1,0.1,0,0.2v0.2c0,0.1,0,0.1,0,0.2
			c0,0.1,0.1,0.1,0.2,0.1H32.2z"/>
		<path class="st0" d="M38.4,8.1h2.1c0.3,0,0.5,0,0.8,0.1c0.2,0.1,0.4,0.2,0.5,0.3C42,8.7,42,8.9,42.1,9.1c0.1,0.2,0.1,0.4,0.1,0.7
			v2.5h-1.4V9.8c0-0.2,0-0.3-0.1-0.5c-0.1-0.1-0.3-0.2-0.4-0.1H39c0.1,0.2,0.1,0.4,0.1,0.6v2.5h-1.3V9.8c0-0.2,0-0.3-0.1-0.5
			c-0.1-0.1-0.3-0.2-0.4-0.1h-1.3l-0.2-0.6l0,0v3.6h-1.4V8.1h3.2c0.2,0,0.5,0,0.7,0.1c0.2,0.1,0.3,0.2,0.5,0.3l0,0
			c0,0-0.1-0.1-0.1-0.2L38.4,8.1L38.4,8.1z"/>
	</g>
</g>
</svg>
