<?xml version="1.0" encoding="utf-8"?>
<!-- Generator: Adobe Illustrator 23.0.6, SVG Export Plug-In . SVG Version: 6.00 Build 0)  -->
<svg version="1.1" id="Capa_1" xmlns="http://www.w3.org/2000/svg" xmlns:xlink="http://www.w3.org/1999/xlink" x="0px" y="0px"
	 viewBox="0 0 526 145.3" style="enable-background:new 0 0 526 145.3;" xml:space="preserve">
<style type="text/css">
	.st0{fill:#E2D7CF;}
	.st1{fill:#FFFFFF;}
	.st2{fill:#E52029;}
	.st3{fill:#494846;}
</style>
<g>
	<rect x="0.5" y="0.5" class="st0" width="525" height="72.2"/>
	<path class="st1" d="M526,73.2H0V0h526V73.2z M1,72.2h524V1H1V72.2z"/>
</g>
<g>
	<rect x="0.5" y="72.7" class="st0" width="525" height="72.2"/>
	<path class="st1" d="M526,145.3H0V72.2h526V145.3z M1,144.3h524V73.2H1V144.3z"/>
</g>
<path class="st1" d="M106,145.3H0V0h106V145.3z M1,144.3h104V1H1V144.3z"/>
<path class="st1" d="M211,145.3H105V0h106V145.3z M106,144.3h104V1H106V144.3z"/>
<path class="st1" d="M316,145.3H210V0h106V145.3z M211,144.3h104V1H211V144.3z"/>
<path class="st1" d="M421,145.3H315V0h106V145.3z M316,144.3h104V1H316V144.3z"/>
<path class="st1" d="M526,145.3H420V0h106L526,145.3L526,145.3z M421,144.3h104V1H421V144.3z"/>
<path class="st2" d="M31.6,62.9H17.3v-1h13.3v-8.1h11c1.1-2.2,8-15.5,21.5-15.8c13.9-0.3,18.8-15.7,18.8-15.8l0.1-0.4h5.4v-7.9h-70
	v-1h71v9.9h-5.6C81.8,25.2,76.4,38.7,63,39c-13.9,0.3-20.6,15.3-20.7,15.5l-0.1,0.3H31.6V62.9z"/>
<polygon class="st2" points="17.7,67.9 16.7,67.9 16.8,43.1 10.1,40.5 19.6,37.9 9.9,35 16.8,32.9 16.7,5.5 17.7,5.5 17.8,33.7 
	13.5,35 23.2,37.9 13.3,40.7 17.8,42.4 "/>
<path class="st2" d="M131.4,63.1H122v-1h9.4c6.3,0,8.7-3.6,11.6-7.8c3.8-5.5,8-11.8,21.9-12c9.1-0.1,16.1-2.8,20.8-8.1
	c6.6-7.4,6.5-17.8,6.4-20.1H122v-1h71l0,0.4c0,0.1,1.2,12.6-6.6,21.3c-4.9,5.4-12.1,8.3-21.5,8.4c-13.4,0.2-17.5,6.2-21.1,11.6
	C140.9,59.1,138.2,63.1,131.4,63.1z"/>
<polygon class="st2" points="122.2,67.9 121.2,67.9 121.3,45.6 114.7,43 124.2,40.4 114.5,37.5 121.3,35.4 121.3,5.5 122.3,5.5 
	122.3,36.2 118,37.5 127.8,40.4 117.8,43.2 122.3,45 "/>
<path class="st2" d="M231.8,63.1H222v-1h9.8c7.3,0,9.9-4.1,12.9-8.9c3.8-6.1,8.1-12.9,22.7-13.3c13.8-0.4,17.1-17.2,17.2-17.3
	l0.1-0.4h7.4v-7.9h-70v-1h71v9.9h-7.6c-0.6,2.7-4.6,17.4-18,17.7c-14.1,0.4-18.2,7-21.9,12.9C242.5,58.6,239.6,63.1,231.8,63.1z"/>
<polygon class="st2" points="222.3,67.9 221.3,67.9 221.5,44.4 214.8,41.8 224.3,39.2 214.6,36.3 221.5,34.2 221.3,5.5 222.3,5.5 
	222.5,35 218.1,36.3 227.9,39.2 217.9,42 222.5,43.7 "/>
<path class="st2" d="M356.4,62.9h-25.1v-1h24.1l0-8.1l0.5,0c0.7,0,16.3,0.9,17.6-15.3l0-0.5l0.5,0c18.9-0.1,19.8-15.1,19.8-15.7
	l0-0.5h7.5v-7.9h-70v-1h71v9.9h-7.5c-0.3,2.7-2.8,15.9-20.3,16.2c-1.5,14.9-15.1,15.8-18.1,15.8c0,0,0,0,0,0L356.4,62.9z"/>
<polygon class="st2" points="331.7,67.9 330.7,67.9 330.8,43.1 324.1,40.5 333.6,37.9 323.9,35 330.8,32.9 330.7,5.5 331.7,5.5 
	331.8,33.7 327.5,35 337.2,37.9 327.3,40.7 331.8,42.4 "/>
<polygon class="st2" points="463.7,63 438.6,63 438.6,62 462.7,62 462.6,53 508.6,25.8 508.6,14.2 438.6,14.2 438.6,13.2 
	509.6,13.2 509.6,26.4 463.6,53.6 "/>
<polygon class="st2" points="438.9,67.9 437.9,67.9 438.1,44.4 431.4,41.8 440.9,39.2 431.2,36.3 438.1,34.2 437.9,5.5 438.9,5.5 
	439.1,35 434.7,36.3 444.5,39.2 434.5,42 439.1,43.7 "/>
<path class="st2" d="M47.4,134.3H17.3v-1h29.1l0-9.1h0.5c27.3,0,32.9-11.4,32.9-28.6v-0.5h7.5v-9h-70v-1h71v11h-7.5
	c-0.1,20.8-9.6,29-33.4,29.1L47.4,134.3z"/>
<polygon class="st2" points="17.7,139.9 16.7,139.9 16.8,115.3 10.1,112.7 19.6,110 9.9,107.1 16.8,105.1 16.7,77.5 17.7,77.5 
	17.8,105.9 13.5,107.1 23.2,110.1 13.3,112.8 17.8,114.6 "/>
<path class="st2" d="M146.1,134.4H122v-1h23.1c0.1-2.4,1.2-12.4,12.1-13.9c18.4-2.6,27.3-10.4,27.3-23.9v-0.5h7.5v-9h-70v-1h71v11
	h-7.5c-0.2,13.5-9.7,21.7-28.2,24.3c-11.4,1.6-11.2,13.3-11.2,13.4L146.1,134.4z"/>
<polygon class="st2" points="122.3,139.9 121.3,139.9 121.5,117.8 114.8,115.2 124.3,112.6 114.6,109.7 121.5,107.6 121.5,77.7 
	122.5,77.7 122.5,108.4 118.1,109.7 127.9,112.6 117.9,115.4 122.5,117.1 "/>
<path class="st2" d="M222,134.6C222,134.6,222,134.6,222,134.6l0-1h0c0.1,0,8.5-0.1,11.1-6l0.2-0.4l0.4,0.2
	c0.6,0.2,15.2,5.5,24-12.5c2.8-5.8,8-6.3,13-6.9c6.5-0.7,12.6-1.4,13.7-13.2l0-0.5h7.5v-8.2h-70v-1h71v10.2h-7.5
	c-1.3,12.1-8,12.9-14.5,13.6c-5,0.6-9.7,1.1-12.3,6.4c-8.4,17.1-22.2,14-24.9,13.2C230.8,134.5,222.5,134.6,222,134.6z"/>
<polygon class="st2" points="222.3,139.9 221.3,139.9 221.5,117.8 214.8,115.2 224.3,112.6 214.6,109.7 221.5,107.6 221.5,77.7 
	222.5,77.7 222.5,108.4 218.1,109.7 227.9,112.6 217.9,115.4 222.5,117.1 "/>
<polygon class="st2" points="373.1,134.3 331.3,134.3 331.3,133.3 372.7,133.3 401.3,104.4 401.3,86.1 331.3,86.1 331.3,85.1 
	402.3,85.1 402.3,104.8 "/>
<polygon class="st2" points="331.7,139.9 330.7,139.9 330.8,118.1 324.1,115.5 333.6,112.9 323.9,110 330.8,107.9 330.7,77.5 
	331.7,77.5 331.8,108.7 327.5,110 337.2,112.9 327.3,115.7 331.8,117.4 "/>
<path class="st2" d="M480.1,134.3H438v-1h41.1c0.2-21.3,14.9-29.1,28.9-29.2v-18h-70v-1h71v20h-0.5c-13.7,0-28.4,7.6-28.4,28.7
	L480.1,134.3L480.1,134.3z"/>
<polygon class="st2" points="438.4,139.9 437.4,139.9 437.5,118 430.9,115.4 440.4,112.7 430.7,109.9 437.5,107.8 437.5,77.8 
	438.5,77.8 438.5,108.6 434.2,109.9 444,112.8 434,115.6 438.5,117.4 "/>
<g>
	<g>
		<g>
			<path class="st3" d="M91,60.5v-7.1h-2v-1h0.2c0.9,0,2-0.2,2.3-1.5v-0.2h1.2v9.8L91,60.5L91,60.5z"/>
		</g>
	</g>
	<g>
		<g>
			<path class="st3" d="M198.5,60.5h-5.7c0-4.3,4.1-4.2,4.1-7.2c0-0.8-0.3-1.5-1.2-1.5c-1.2,0-1.4,1.1-1.4,2.1h-1.5
				c0-2,0.8-3.2,2.9-3.2c2,0,2.8,1.2,2.8,2.6c0,3.3-3.2,3.5-3.9,5.9h4L198.5,60.5L198.5,60.5z"/>
		</g>
	</g>
	<g>
		<g>
			<path class="st3" d="M294.3,57.8c0,0.9,0.3,1.8,1.3,1.8c1,0,1.4-0.8,1.4-1.8c0-1.2-0.4-1.8-1.6-1.8h-0.6v-1.1h0.6
				c1.1,0,1.4-0.7,1.4-1.7c0-0.7-0.3-1.4-1.1-1.4c-1,0-1.2,0.8-1.2,1.7h-1.5c0-1.8,1-2.8,2.8-2.8c1.2,0,2.6,0.5,2.6,2.5
				c0,1-0.6,2-1.6,2.2v0c1,0.1,1.8,0.9,1.8,2.3c0,1.9-1,3-3,3c-1.8,0-2.8-0.9-2.8-2.9L294.3,57.8L294.3,57.8z"/>
		</g>
	</g>
	<g>
		<g>
			<path class="st3" d="M402.9,56.9l3.4-6.3h1.6V57h1.1v1.3h-1.1v2.2h-1.5v-2.2h-3.5L402.9,56.9L402.9,56.9z M406.4,53L406.4,53
				l-2.2,4.1h2.2L406.4,53L406.4,53z"/>
		</g>
	</g>
	<g>
		<g>
			<path class="st3" d="M511,57.8c0,0.9,0.3,1.8,1.3,1.8c1,0,1.4-0.8,1.4-1.8c0-1.2-0.4-1.8-1.6-1.8h-0.6v-1.1h0.6
				c1.1,0,1.4-0.7,1.4-1.7c0-0.7-0.3-1.4-1.1-1.4c-1,0-1.2,0.8-1.2,1.7h-1.5c0-1.8,1-2.8,2.8-2.8c1.2,0,2.6,0.5,2.6,2.5
				c0,1-0.6,2-1.6,2.2v0c1,0.1,1.8,0.9,1.8,2.3c0,1.9-1,3-3,3c-1.8,0-2.8-0.9-2.8-2.9L511,57.8L511,57.8z"/>
		</g>
	</g>
	<g>
		<g>
			<path class="st3" d="M92.4,124.5c0-0.6-0.3-1.3-1.1-1.3c-1.5,0-1.6,2-1.6,3.4l0,0c0.4-0.7,1.1-1,1.9-1c1.3,0,2.4,1,2.4,2.9
				c0,2.3-0.9,3.6-3,3.6c-2.5,0-3-1.9-3-4.7c0-2.9,0.5-5.3,3.1-5.3c1.7,0,2.7,0.8,2.7,2.4H92.4z M91.3,131.1c1,0,1.3-1,1.3-2.1
				c0-1.4-0.4-2.1-1.3-2.1c-1.2,0-1.4,1-1.4,2.2C89.9,130.2,90.3,131.1,91.3,131.1z"/>
		</g>
	</g>
	<g>
		<g>
			<path class="st3" d="M192.9,122.3h5.8v1.2c-1.5,2-2.9,5.4-3.1,8.4H194c0.2-2.9,1.7-6.2,3.2-8.2h-4.3L192.9,122.3L192.9,122.3z"/>
		</g>
	</g>
	<g>
		<g>
			<path class="st3" d="M292.8,129.2c0-1.5,0.7-2.3,1.7-2.5v0c-0.8-0.3-1.4-0.9-1.4-2.1c0-1.5,1-2.5,2.7-2.5s2.7,0.9,2.7,2.5
				c0,1.2-0.5,1.8-1.4,2.1v0c1,0.2,1.7,1,1.7,2.5c0,1.9-1,2.9-3,2.9C293.8,132.2,292.8,131.2,292.8,129.2z M295.8,131.1
				c1.1,0,1.4-0.8,1.4-1.9c0-1-0.3-1.9-1.4-1.9s-1.4,0.8-1.4,1.9C294.4,130.2,294.7,131.1,295.8,131.1z M295.8,126.2
				c1,0,1.2-0.7,1.2-1.5c0-0.8-0.2-1.5-1.2-1.5c-1,0-1.2,0.7-1.2,1.5C294.6,125.5,294.8,126.2,295.8,126.2z"/>
		</g>
	</g>
	<g>
		<g>
			<path class="st3" d="M403.8,129.8c0,0.6,0.3,1.3,1.1,1.3c1.5,0,1.6-2,1.6-3.4l0,0c-0.4,0.7-1.1,1-1.9,1c-1.3,0-2.4-1-2.4-2.9
				c0-2.3,0.9-3.6,3-3.6c2.5,0,3,1.9,3,4.7c0,2.9-0.5,5.3-3.1,5.3c-1.7,0-2.7-0.8-2.7-2.4L403.8,129.8L403.8,129.8z M404.9,123.3
				c-1,0-1.3,1-1.3,2.1c0,1.4,0.4,2.1,1.3,2.1c1.2,0,1.4-1,1.4-2.2C406.2,124.2,405.8,123.3,404.9,123.3z"/>
		</g>
	</g>
	<g>
		<g>
			<path class="st3" d="M511.1,132v-7.1h-2v-1h0.2c0.9,0,2-0.2,2.3-1.5v-0.2h1.2v9.8L511.1,132L511.1,132z"/>
			<path class="st3" d="M518.3,122.1c1.9,0,2.9,1.2,2.9,5s-1.1,5-2.9,5s-2.9-1.2-2.9-5C515.3,123.3,516.4,122.1,518.3,122.1z
				 M518.3,131.1c1.1,0,1.4-1,1.4-3.9c0-2.9-0.3-3.9-1.4-3.9s-1.4,1-1.4,3.9C516.9,130,517.2,131.1,518.3,131.1z"/>
		</g>
	</g>
</g>
</svg>
