<?xml version="1.0" encoding="utf-8"?>
<!-- Generator: Adobe Illustrator 22.1.0, SVG Export Plug-In . SVG Version: 6.00 Build 0)  -->
<svg version="1.1" id="Capa_1" xmlns="http://www.w3.org/2000/svg" xmlns:xlink="http://www.w3.org/1999/xlink" x="0px" y="0px"
	 viewBox="0 0 42.9 20.3" style="enable-background:new 0 0 42.9 20.3;" xml:space="preserve">
<style type="text/css">
	.st0{fill:#7F7771;}
	.st1{fill:#E81C1F;}
</style>
<title>eurolam_logo_1</title>
<g>
	<g>
		<path class="st0" d="M8.3,17.6L8.3,17.6l0,0.6c0,0.2,0,0.4,0.1,0.5c0.1,0.1,0.2,0.1,0.4,0.1h2.7v1h-3c-0.3,0-0.5,0-0.7-0.1
			c-0.2-0.1-0.4-0.2-0.5-0.3c-0.1-0.1-0.2-0.3-0.3-0.5C7,18.7,7,18.5,7,18.2v-0.8c0-0.2,0-0.4,0.1-0.6c0.1-0.2,0.1-0.3,0.3-0.5
			c0.1-0.1,0.3-0.2,0.5-0.3C8,16,8.3,15.9,8.5,15.9h2.2c0.3,0,0.5,0.1,0.6,0.2c0.1,0.2,0.2,0.4,0.2,0.7v0.4c0,0.3-0.1,0.5-0.2,0.7
			c-0.1,0.2-0.3,0.3-0.6,0.3H8.5L8.3,17.6z M8.2,17.4h1.9c0.1,0,0.2-0.1,0.2-0.2V17c0-0.1,0-0.1-0.1-0.2c0,0-0.1-0.1-0.2-0.1H8.8
			c-0.2,0-0.3,0-0.4,0.1C8.3,17,8.2,17.2,8.2,17.4L8.2,17.4z"/>
		<path class="st0" d="M12.1,15.9h1.3v2.1c0,0.2,0,0.4,0.1,0.4c0.1,0.1,0.2,0.1,0.5,0.1h1.2c0.2,0,0.4,0,0.5-0.1
			c0.1-0.1,0.1-0.2,0.1-0.4v-2.1H17v2.3c0,0.2,0,0.4-0.1,0.6c-0.1,0.2-0.1,0.3-0.3,0.5c-0.1,0.1-0.3,0.2-0.5,0.3
			c-0.2,0.1-0.4,0.1-0.7,0.1h-1.7c-0.3,0-0.5,0-0.7-0.1c-0.2-0.1-0.4-0.2-0.5-0.3c-0.1-0.1-0.2-0.3-0.3-0.5
			c-0.1-0.2-0.1-0.4-0.1-0.6V15.9z"/>
		<path class="st0" d="M20.8,17.5L20.8,17.5L20.8,17c0,0,0-0.1-0.1-0.1h-1.5c-0.1,0-0.2,0-0.2,0.1c0,0.1-0.1,0.1-0.1,0.3v2.5h-1.3
			V17c0-0.3,0.1-0.6,0.3-0.8c0.2-0.2,0.4-0.3,0.8-0.3h3.1c0.1,0,0.2,0.1,0.2,0.2v1L20.8,17.5z"/>
		<path class="st0" d="M27.4,18.2c0,0.2,0,0.4-0.1,0.6c-0.1,0.2-0.1,0.3-0.3,0.5c-0.1,0.1-0.3,0.2-0.5,0.3c-0.2,0.1-0.4,0.1-0.7,0.1
			h-1.8c-0.3,0-0.5,0-0.7-0.1c-0.2-0.1-0.4-0.2-0.5-0.3c-0.1-0.1-0.2-0.3-0.3-0.5c-0.1-0.2-0.1-0.4-0.1-0.6v-0.8
			c0-0.2,0-0.4,0.1-0.6c0.1-0.2,0.1-0.3,0.3-0.5c0.1-0.1,0.3-0.2,0.5-0.3c0.2-0.1,0.4-0.1,0.7-0.1h1.8c0.3,0,0.5,0,0.7,0.1
			c0.2,0.1,0.4,0.2,0.5,0.3c0.1,0.1,0.2,0.3,0.3,0.5c0.1,0.2,0.1,0.4,0.1,0.6V18.2z M25.6,18.6c0.2,0,0.3,0,0.4-0.1
			c0.1-0.1,0.1-0.2,0.1-0.4v-0.5c0-0.2,0-0.4-0.1-0.5c-0.1-0.1-0.2-0.1-0.4-0.1h-1.4c-0.2,0-0.3,0-0.4,0.1c-0.1,0.1-0.1,0.2-0.1,0.5
			v0.5c0,0.2,0,0.4,0.1,0.4c0.1,0.1,0.2,0.1,0.4,0.1H25.6z"/>
		<path class="st1" d="M28,19.8v-5.5h1.3v5.5H28z"/>
		<path class="st1" d="M29.9,16.9v-1h3.6c0.3,0,0.4,0.1,0.6,0.2c0.1,0.1,0.2,0.3,0.2,0.6v2.9c0,0.1-0.1,0.2-0.2,0.2h-3.3
			c-0.1,0-0.3,0-0.4-0.1c-0.1,0-0.2-0.1-0.3-0.2c-0.1-0.1-0.1-0.2-0.2-0.3c0-0.1-0.1-0.3-0.1-0.5v-0.3c0-0.4,0.1-0.6,0.2-0.8
			c0.2-0.2,0.4-0.2,0.7-0.2h1.9l0.2,0.6h0v-0.8c0-0.1,0-0.2-0.1-0.2c0,0-0.1-0.1-0.2-0.1H29.9z M32.8,18.8
			C32.9,18.8,32.9,18.8,32.8,18.8l0.1-0.7h-1.7c-0.1,0-0.1,0-0.2,0.1c0,0-0.1,0.1-0.1,0.2v0.2c0,0.1,0,0.1,0.1,0.2
			c0,0,0.1,0.1,0.2,0.1H32.8z"/>
		<path class="st1" d="M38.7,15.9h2c0.3,0,0.5,0,0.7,0.1c0.2,0.1,0.4,0.2,0.5,0.3c0.1,0.1,0.2,0.3,0.3,0.5c0.1,0.2,0.1,0.4,0.1,0.6
			v2.3h-1.3v-2.2c0-0.2,0-0.4-0.1-0.5c-0.1-0.1-0.2-0.1-0.4-0.1h-1.2c0,0.1,0.1,0.3,0.1,0.5v2.3H38v-2.2c0-0.2,0-0.4-0.1-0.5
			c-0.1-0.1-0.2-0.1-0.4-0.1h-1.2l-0.2-0.6H36v3.4h-1.3v-3.8h3c0.3,0,0.5,0,0.7,0.1c0.2,0.1,0.3,0.2,0.5,0.3l0,0
			c0-0.1-0.1-0.1-0.1-0.2C38.7,16.1,38.7,16,38.7,15.9L38.7,15.9z"/>
	</g>
	<path class="st1" d="M33.4,3.2c1.1,3,2.2,6,3.3,9.1l0.8,2.1h0.4l-0.8-2.3c-1.1-3-2.2-6-3.3-9.1c-0.3-0.8-0.6-1.2-1-1.4
		c-0.2-0.1-0.4-0.1-0.7-0.1c-0.1-0.2-0.3-0.3-0.5-0.4c-0.2-0.1-0.4-0.1-0.7-0.1c-0.1-0.2-0.3-0.3-0.5-0.4c-0.4-0.2-0.9-0.1-1.7,0.2
		c-8.9,3.3-17.9,6.6-26.8,9.8c-1.1,0.4-1.4,1-1,2.2c0.3,0.8,0.6,1.6,0.8,2.4C2,16,2.3,16.9,2.5,17.7c0.2,0.6,0.5,0.8,1,0.9l0.1-0.4
		c-0.3-0.1-0.5-0.2-0.7-0.7c-0.3-0.8-0.6-1.6-0.9-2.5c-0.3-0.8-0.6-1.6-0.8-2.4C0.9,11.7,1.1,11.4,2,11c8.9-3.3,17.9-6.6,26.8-9.8
		c0.7-0.3,1.1-0.3,1.4-0.2c0.1,0,0.1,0.1,0.2,0.1c-0.2,0-0.3,0.1-0.5,0.2C20.9,4.6,12,7.9,3.1,11.2c-1.1,0.4-1.4,1-1,2.2
		c0.3,0.8,0.6,1.6,0.8,2.4c0.3,0.8,0.6,1.6,0.9,2.5c0.2,0.6,0.5,0.8,1,0.9l0.1-0.4c-0.3-0.1-0.5-0.2-0.7-0.7
		c-0.3-0.8-0.6-1.6-0.9-2.5C3,14.8,2.7,14,2.5,13.2c-0.3-0.9-0.1-1.3,0.8-1.7C12.2,8.3,21.1,5,30,1.7c0.3-0.1,0.5-0.1,0.6-0.2
		c0.1,0.1,0.1,0.3,0.2,0.4C22,5.2,13.2,8.4,4.3,11.7c-1.1,0.4-1.4,1-1,2.2c0.3,0.8,0.6,1.6,0.8,2.4c0.3,0.8,0.6,1.7,0.9,2.5
		c0.2,0.6,0.5,0.8,1,0.9L6,19.2c-0.3-0.1-0.5-0.2-0.7-0.7c-0.3-0.8-0.6-1.7-0.9-2.5c-0.3-0.8-0.6-1.6-0.8-2.4
		c-0.3-0.9-0.1-1.3,0.8-1.7C13.3,8.8,22.1,5.5,31,2.3c0.9,2.5,1.8,5.1,2.8,7.6l1.6,4.5h0.4l-1.7-4.7c-0.9-2.5-1.8-5.1-2.8-7.6
		c0.2-0.1,0.4-0.1,0.5-0.1c0.1,0.2,0.2,0.4,0.3,0.7l4.3,11.7h0.4L32.6,2.6c-0.1-0.2-0.2-0.4-0.2-0.6c0.1,0,0.2,0,0.3,0.1
		C32.9,2.2,33.1,2.5,33.4,3.2z M31.2,1.8c0-0.1-0.1-0.2-0.1-0.3c0.1,0,0.2,0,0.3,0.1c0.1,0,0.1,0.1,0.2,0.1
		C31.5,1.7,31.4,1.7,31.2,1.8z"/>
</g>
</svg>
