<?xml version="1.0" encoding="utf-8"?>
<!-- Generator: Adobe Illustrator 22.1.0, SVG Export Plug-In . SVG Version: 6.00 Build 0)  -->
<svg version="1.1" id="Capa_1" xmlns="http://www.w3.org/2000/svg" xmlns:xlink="http://www.w3.org/1999/xlink" x="0px" y="0px"
	 viewBox="0 0 43 21.3" style="enable-background:new 0 0 43 21.3;" xml:space="preserve">
<style type="text/css">
	.st0{fill:#FFFFFF;}
	.st1{fill:#E81C1F;}
</style>
<title>eurolam_logo</title>
<g>
	<g>
		<path class="st0" d="M8.3,18L8.3,18l0,0.6c0,0.2,0,0.4,0.1,0.5c0.1,0.1,0.2,0.1,0.4,0.1h2.7v1h-3c-0.3,0-0.5,0-0.7-0.1
			c-0.2-0.1-0.4-0.2-0.5-0.3c-0.1-0.1-0.2-0.3-0.3-0.5C7,19.1,7,18.9,7,18.6v-0.8c0-0.2,0-0.4,0.1-0.6c0.1-0.2,0.1-0.3,0.3-0.5
			c0.1-0.1,0.3-0.2,0.5-0.3c0.2-0.1,0.4-0.1,0.7-0.1h2.2c0.3,0,0.5,0.1,0.6,0.2c0.1,0.2,0.2,0.4,0.2,0.7v0.4c0,0.3-0.1,0.5-0.2,0.7
			c-0.1,0.2-0.3,0.3-0.6,0.3H8.6L8.3,18z M8.3,17.8h1.9c0.1,0,0.2-0.1,0.2-0.2v-0.1c0-0.1,0-0.1-0.1-0.2c0,0-0.1-0.1-0.2-0.1H8.8
			c-0.2,0-0.3,0-0.4,0.1C8.3,17.4,8.3,17.5,8.3,17.8L8.3,17.8z"/>
		<path class="st0" d="M12.2,16.3h1.3v2.1c0,0.2,0,0.4,0.1,0.4C13.6,19,13.8,19,14,19h1.2c0.2,0,0.4,0,0.5-0.1
			c0.1-0.1,0.1-0.2,0.1-0.4v-2.1H17v2.3c0,0.2,0,0.4-0.1,0.6c-0.1,0.2-0.1,0.3-0.3,0.5c-0.1,0.1-0.3,0.2-0.5,0.3
			c-0.2,0.1-0.4,0.1-0.7,0.1h-1.7c-0.3,0-0.5,0-0.7-0.1c-0.2-0.1-0.4-0.2-0.5-0.3c-0.1-0.1-0.2-0.3-0.3-0.5
			c-0.1-0.2-0.1-0.4-0.1-0.6V16.3z"/>
		<path class="st0" d="M20.9,17.9L20.9,17.9l-0.1-0.5c0,0,0-0.1-0.1-0.1h-1.5c-0.1,0-0.2,0-0.2,0.1c0,0.1-0.1,0.1-0.1,0.3v2.5h-1.3
			v-2.8c0-0.3,0.1-0.6,0.3-0.8c0.2-0.2,0.4-0.3,0.8-0.3h3.1c0.1,0,0.2,0.1,0.2,0.2v1L20.9,17.9z"/>
		<path class="st0" d="M27.4,18.6c0,0.2,0,0.4-0.1,0.6c-0.1,0.2-0.1,0.3-0.3,0.5c-0.1,0.1-0.3,0.2-0.5,0.3c-0.2,0.1-0.4,0.1-0.7,0.1
			H24c-0.3,0-0.5,0-0.7-0.1c-0.2-0.1-0.4-0.2-0.5-0.3c-0.1-0.1-0.2-0.3-0.3-0.5c-0.1-0.2-0.1-0.4-0.1-0.6v-0.8c0-0.2,0-0.4,0.1-0.6
			c0.1-0.2,0.1-0.3,0.3-0.5c0.1-0.1,0.3-0.2,0.5-0.3c0.2-0.1,0.4-0.1,0.7-0.1h1.8c0.3,0,0.5,0,0.7,0.1c0.2,0.1,0.4,0.2,0.5,0.3
			c0.1,0.1,0.2,0.3,0.3,0.5c0.1,0.2,0.1,0.4,0.1,0.6V18.6z M25.6,19c0.2,0,0.3,0,0.4-0.1c0.1-0.1,0.1-0.2,0.1-0.4v-0.5
			c0-0.2,0-0.4-0.1-0.5c-0.1-0.1-0.2-0.1-0.4-0.1h-1.4c-0.2,0-0.3,0-0.4,0.1c-0.1,0.1-0.1,0.2-0.1,0.5v0.5c0,0.2,0,0.4,0.1,0.4
			C23.9,19,24,19,24.2,19H25.6z"/>
		<path class="st1" d="M28,20.1v-5.5h1.3v5.5H28z"/>
		<path class="st1" d="M29.9,17.3v-1h3.6c0.3,0,0.4,0.1,0.6,0.2c0.1,0.1,0.2,0.3,0.2,0.6V20c0,0.1-0.1,0.2-0.2,0.2h-3.3
			c-0.1,0-0.3,0-0.4-0.1c-0.1,0-0.2-0.1-0.3-0.2c-0.1-0.1-0.1-0.2-0.2-0.3c0-0.1-0.1-0.3-0.1-0.5v-0.3c0-0.4,0.1-0.6,0.2-0.8
			c0.2-0.2,0.4-0.2,0.7-0.2h1.9l0.2,0.6h0v-0.8c0-0.1,0-0.2-0.1-0.2c0,0-0.1-0.1-0.2-0.1H29.9z M32.9,19.2
			C32.9,19.2,32.9,19.2,32.9,19.2l0.1-0.7h-1.7c-0.1,0-0.1,0-0.2,0.1c0,0-0.1,0.1-0.1,0.2v0.2c0,0.1,0,0.1,0.1,0.2
			c0,0,0.1,0.1,0.2,0.1H32.9z"/>
		<path class="st1" d="M38.7,16.3h2c0.3,0,0.5,0,0.7,0.1c0.2,0.1,0.4,0.2,0.5,0.3c0.1,0.1,0.2,0.3,0.3,0.5c0.1,0.2,0.1,0.4,0.1,0.6
			v2.3H41v-2.2c0-0.2,0-0.4-0.1-0.5c-0.1-0.1-0.2-0.1-0.4-0.1h-1.2c0,0.1,0.1,0.3,0.1,0.5v2.3h-1.3v-2.2c0-0.2,0-0.4-0.1-0.5
			c-0.1-0.1-0.2-0.1-0.4-0.1h-1.2l-0.2-0.6h-0.1v3.4h-1.3v-3.8h3c0.3,0,0.5,0,0.7,0.1c0.2,0.1,0.3,0.2,0.5,0.3l0,0
			c0-0.1-0.1-0.1-0.1-0.2C38.8,16.5,38.8,16.4,38.7,16.3L38.7,16.3z"/>
	</g>
	<path class="st1" d="M33.4,3.6c1.1,3,2.2,6,3.3,9.1l0.8,2.1h0.4l-0.8-2.3c-1.1-3-2.2-6-3.3-9.1c-0.3-0.8-0.6-1.2-1-1.4
		C32.6,2,32.4,1.9,32.1,2c-0.1-0.2-0.3-0.3-0.5-0.4c-0.2-0.1-0.4-0.1-0.7-0.1c-0.1-0.2-0.3-0.3-0.5-0.4c-0.4-0.2-0.9-0.1-1.7,0.2
		C19.8,4.5,10.8,7.7,1.9,11c-1.1,0.4-1.4,1-1,2.2c0.3,0.8,0.6,1.6,0.8,2.4c0.3,0.8,0.6,1.6,0.9,2.4c0.2,0.6,0.5,0.8,1,0.9l0.1-0.4
		c-0.3-0.1-0.5-0.2-0.7-0.7c-0.3-0.8-0.6-1.6-0.9-2.5c-0.3-0.8-0.6-1.6-0.8-2.4c-0.3-0.9-0.1-1.3,0.8-1.7C11,8.1,19.9,4.8,28.8,1.6
		c0.7-0.3,1.1-0.3,1.4-0.2c0.1,0,0.1,0.1,0.2,0.1c-0.2,0-0.3,0.1-0.5,0.2C21,5,12.1,8.3,3.1,11.5c-1.1,0.4-1.4,1-1,2.2
		c0.3,0.8,0.6,1.6,0.8,2.4c0.3,0.8,0.6,1.6,0.9,2.5c0.2,0.6,0.5,0.8,1,0.9l0.1-0.4c-0.3-0.1-0.5-0.2-0.7-0.7
		c-0.3-0.8-0.6-1.6-0.9-2.5c-0.3-0.8-0.6-1.6-0.8-2.4c-0.3-0.9-0.1-1.3,0.8-1.7c8.9-3.3,17.9-6.6,26.8-9.8c0.3-0.1,0.5-0.1,0.6-0.2
		c0.1,0.1,0.1,0.3,0.2,0.4c-8.9,3.2-17.7,6.5-26.5,9.7c-1.1,0.4-1.4,1-1,2.2c0.3,0.8,0.6,1.6,0.8,2.4c0.3,0.8,0.6,1.7,0.9,2.5
		c0.2,0.6,0.5,0.8,1,0.9l0.1-0.4c-0.3-0.1-0.5-0.2-0.7-0.7c-0.3-0.8-0.6-1.7-0.9-2.5c-0.3-0.8-0.6-1.6-0.8-2.4
		c-0.3-0.9-0.1-1.3,0.8-1.7C13.3,9.2,22.2,5.9,31,2.7c0.9,2.5,1.8,5.1,2.8,7.6l1.6,4.5h0.4l-1.7-4.7c-0.9-2.5-1.8-5.1-2.8-7.6
		c0.2-0.1,0.4-0.1,0.5-0.1c0.1,0.2,0.2,0.4,0.3,0.7l4.3,11.7h0.4L32.6,2.9c-0.1-0.2-0.2-0.4-0.2-0.6c0.1,0,0.2,0,0.3,0.1
		C33,2.6,33.2,2.9,33.4,3.6z M31.3,2.2c0-0.1-0.1-0.2-0.1-0.3c0.1,0,0.2,0,0.3,0.1c0.1,0,0.1,0.1,0.2,0.1
		C31.5,2.1,31.4,2.1,31.3,2.2z"/>
</g>
</svg>
