<svg xmlns="http://www.w3.org/2000/svg" viewBox="0 0 44.71 21.53"><defs><style>.cls-1{fill:#7f7771;}.cls-2{fill:#e32213;}</style></defs><title>eurolam_logo_1</title><g id="Capa_2" data-name="Capa 2"><g id="object"><path class="cls-1" d="M8.81,16.34H8.76V17a.73.73,0,0,0,.12.48.58.58,0,0,0,.44.13h2.9v1.08H9.07a2.13,2.13,0,0,1-.76-.12,1.31,1.31,0,0,1-.52-.32,1.27,1.27,0,0,1-.28-.51,2.29,2.29,0,0,1-.09-.66v-.84a2.19,2.19,0,0,1,.09-.66A1.27,1.27,0,0,1,7.79,15a1.45,1.45,0,0,1,.52-.33,2.39,2.39,0,0,1,.76-.11h2.35a.81.81,0,0,1,.66.24,1.12,1.12,0,0,1,.2.75V16a1.14,1.14,0,0,1-.2.72.75.75,0,0,1-.66.26H9Zm-.05-.2h2c.16,0,.23-.07.23-.23v-.15a.19.19,0,0,0-.23-.23H9.32a.57.57,0,0,0-.43.13.63.63,0,0,0-.13.46Z"/><path class="cls-1" d="M12.85,14.6h1.34v2.27a.64.64,0,0,0,.14.47.76.76,0,0,0,.48.13H16a.73.73,0,0,0,.5-.14.63.63,0,0,0,.14-.46V14.6H18v2.45a2.29,2.29,0,0,1-.09.66,1.28,1.28,0,0,1-.29.51,1.2,1.2,0,0,1-.51.32,2.21,2.21,0,0,1-.78.12H14.5a2.13,2.13,0,0,1-.76-.12,1.2,1.2,0,0,1-.51-.32,1.28,1.28,0,0,1-.29-.51,2.29,2.29,0,0,1-.09-.66Z"/><path class="cls-1" d="M22.1,16.3h-.05v-.56a.07.07,0,0,0-.08-.08H20.34a.32.32,0,0,0-.25.08A.44.44,0,0,0,20,16v2.63H18.67V15.74a1.22,1.22,0,0,1,.27-.83,1.08,1.08,0,0,1,.86-.31h3.3c.12,0,.19.06.19.2v1Z"/><path class="cls-1" d="M29,17.05a2.29,2.29,0,0,1-.09.66,1.28,1.28,0,0,1-.29.51,1.24,1.24,0,0,1-.52.32,2.18,2.18,0,0,1-.77.12H25.38a2.09,2.09,0,0,1-.76-.12,1.24,1.24,0,0,1-.52-.32,1.28,1.28,0,0,1-.29-.51,2.29,2.29,0,0,1-.09-.66v-.84a2.29,2.29,0,0,1,.09-.66A1.28,1.28,0,0,1,24.1,15a1.37,1.37,0,0,1,.52-.33,2.35,2.35,0,0,1,.76-.11h1.95a2.46,2.46,0,0,1,.77.11,1.37,1.37,0,0,1,.52.33,1.28,1.28,0,0,1,.29.51,2.29,2.29,0,0,1,.09.66Zm-1.91.42a.58.58,0,0,0,.44-.13.63.63,0,0,0,.13-.47V16.3a.7.7,0,0,0-.13-.5.59.59,0,0,0-.44-.14H25.63a.58.58,0,0,0-.44.14.78.78,0,0,0-.12.5v.57a.68.68,0,0,0,.12.47.58.58,0,0,0,.44.13Z"/><path class="cls-2" d="M29.62,18.66V12.89H31v5.77Z"/><path class="cls-2" d="M31.63,15.6v-1H35.4a.73.73,0,0,1,.59.22.94.94,0,0,1,.19.64v3c0,.12-.06.18-.17.18H32.47a1.25,1.25,0,0,1-.4-.06.64.64,0,0,1-.3-.19.77.77,0,0,1-.18-.35,2,2,0,0,1-.06-.54v-.3a1.18,1.18,0,0,1,.24-.83,1,1,0,0,1,.7-.25h2.06l.25.6h0v-.82a.33.33,0,0,0-.07-.24.29.29,0,0,0-.21-.08Zm3.12,2s.08,0,.08-.09v-.62H33.07a.22.22,0,0,0-.19.07.34.34,0,0,0-.05.2v.18a.33.33,0,0,0,.05.19.22.22,0,0,0,.19.07Z"/><path class="cls-2" d="M41,14.6h2.09a2.41,2.41,0,0,1,.77.11,1.29,1.29,0,0,1,.52.33,1.27,1.27,0,0,1,.28.51,2.19,2.19,0,0,1,.09.66v2.45H43.37V16.29a.7.7,0,0,0-.13-.49.58.58,0,0,0-.43-.14H41.55a1.82,1.82,0,0,1,.08.55v2.45H40.29V16.29a.76.76,0,0,0-.13-.49.6.6,0,0,0-.43-.14H38.44l-.22-.59h0v3.59H36.83V14.6H40a2.2,2.2,0,0,1,.73.11,1.49,1.49,0,0,1,.49.32l0,0c0-.05-.09-.1-.13-.16L41,14.66Z"/><path class="cls-1" d="M7.73,21.52V20.41h.08v1.11Z"/><path class="cls-1" d="M8.57,20.56v1H8.49V20.41h.06l.78,1v-1h.08v1.11H9.34Z"/><path class="cls-1" d="M10.91,21.35a.51.51,0,0,1-.38.18.54.54,0,0,1-.21-.05.48.48,0,0,1-.16-.13.54.54,0,0,1-.11-.18.71.71,0,0,1,0-.2.65.65,0,0,1,0-.21.54.54,0,0,1,.11-.18.4.4,0,0,1,.16-.13.45.45,0,0,1,.2,0h.15l.12,0a.24.24,0,0,1,.09.08.36.36,0,0,1,.07.1l-.07,0a.34.34,0,0,0-.15-.16.36.36,0,0,0-.21-.05.39.39,0,0,0-.18,0,.69.69,0,0,0-.13.11.51.51,0,0,0-.09.16.57.57,0,0,0,0,.18.39.39,0,0,0,0,.18.51.51,0,0,0,.09.16l.14.11a.58.58,0,0,0,.18,0,.41.41,0,0,0,.19-.05.6.6,0,0,0,.18-.15v-.21h-.26V21H11v.54h-.06Z"/><path class="cls-1" d="M11.6,21.52V20.41h.08v1.11Z"/><path class="cls-1" d="M13.1,21.45v.07h-.74V20.41h.72v.08h-.64v.43H13V21h-.56v.46Z"/><path class="cls-1" d="M13.78,20.56v1H13.7V20.41h.07l.77,1v-1h.08v1.11h-.07Z"/><path class="cls-1" d="M15.3,21.52V20.41h.08v1.11Z"/><path class="cls-1" d="M16.8,21.45v.07h-.74V20.41h.72v.08h-.64v.43h.56V21h-.56v.46Z"/><path class="cls-1" d="M17.41,21.52V20.41h.46a.31.31,0,0,1,.13,0,.39.39,0,0,1,.1.08.41.41,0,0,1,.07.11.51.51,0,0,1,0,.13.36.36,0,0,1,0,.11.37.37,0,0,1-.05.11.27.27,0,0,1-.08.07l-.11,0,.28.43h-.1l-.27-.42h-.35v.42Zm.08-.49h.38l.1,0a.27.27,0,0,0,.08-.07.2.2,0,0,0,0-.08.2.2,0,0,0,0-.1.43.43,0,0,0,0-.11.22.22,0,0,0-.05-.08.16.16,0,0,0-.08-.06.16.16,0,0,0-.1,0h-.37Z"/><path class="cls-1" d="M18.81,21.52V20.41h.08v1.11Z"/><path class="cls-1" d="M19.92,20.41H20l.46,1.11h-.08l-.15-.36h-.53l-.16.36h-.08Zm.27.68L20,20.51l-.24.58Z"/><path class="cls-1" d="M22.49,21.45v.07h-.73V20.41h.72v.08h-.64v.43h.56V21h-.56v.46Z"/><path class="cls-1" d="M23.18,20.56v1H23.1V20.41h.06l.78,1v-1H24v1.11H24Z"/><path class="cls-1" d="M25.4,20.41l.42,1,.42-1h.09l-.47,1.11h-.08l-.47-1.11Z"/><path class="cls-1" d="M26.89,21.52V20.41H27v1.11Z"/><path class="cls-1" d="M28.46,21.35a.49.49,0,0,1-.37.18.46.46,0,0,1-.21-.05.4.4,0,0,1-.16-.13.42.42,0,0,1-.11-.18.48.48,0,0,1,0-.2.46.46,0,0,1,0-.21.52.52,0,0,1,.1-.18.43.43,0,0,1,.17-.13.45.45,0,0,1,.2,0h.15l.12,0,.09.08a.33.33,0,0,1,.06.1l-.06,0a.34.34,0,0,0-.15-.16.36.36,0,0,0-.21-.05.34.34,0,0,0-.18,0l-.14.11a.8.8,0,0,0-.08.16.55.55,0,0,0,0,.36.86.86,0,0,0,.1.16l.14.11a.47.47,0,0,0,.17,0,.46.46,0,0,0,.2-.05.47.47,0,0,0,.17-.15v-.21h-.25V21h.32v.54h-.07Z"/><path class="cls-1" d="M29.5,20.41h.07L30,21.52H30l-.16-.36h-.53l-.15.36H29Zm.28.68-.24-.58-.25.58Z"/><path class="cls-1" d="M31.23,20.6a.41.41,0,0,0-.31-.12.35.35,0,0,0-.23.06.21.21,0,0,0-.08.16.2.2,0,0,0,0,.09.09.09,0,0,0,.06.06l.1,0,.15,0,.16,0,.12.06a.3.3,0,0,1,.08.08.28.28,0,0,1,0,.13.21.21,0,0,1,0,.12.39.39,0,0,1-.08.1l-.13.05-.16,0a.6.6,0,0,1-.44-.17l0-.06a.57.57,0,0,0,.18.12.51.51,0,0,0,.22,0,.46.46,0,0,0,.23-.05.19.19,0,0,0,.08-.16.3.3,0,0,0,0-.1s0,0-.06-.06L31.05,21l-.16,0-.15,0a.33.33,0,0,1-.12-.05.27.27,0,0,1-.07-.08.36.36,0,0,1,0-.11.32.32,0,0,1,0-.14.24.24,0,0,1,.08-.09.27.27,0,0,1,.12-.06.41.41,0,0,1,.16,0,.54.54,0,0,1,.19,0,.51.51,0,0,1,.16.09Z"/><path class="cls-1" d="M32.71,21.52V20.41h.08v1h.66v.07Z"/><path class="cls-1" d="M34.35,20.41h.07l.47,1.11H34.8l-.15-.36h-.53l-.15.36h-.09Zm.28.68-.24-.58-.25.58Z"/><path class="cls-1" d="M36.45,21.52v-1l-.44.75h0l-.43-.75v1h-.08V20.41h.08l.46.8.46-.8h.08v1.11Z"/><path class="cls-1" d="M37.21,21.52V20.41h.08v1.11Z"/><path class="cls-1" d="M38.05,20.56v1H38V20.41H38l.78,1v-1h.08v1.11h-.07Z"/><path class="cls-1" d="M39.92,20.41H40l.46,1.11h-.08l-.16-.36h-.52l-.16.36h-.08Zm.27.68L40,20.51l-.25.58Z"/><path class="cls-1" d="M41,21.52V20.41h.37a.56.56,0,0,1,.23.05.4.4,0,0,1,.16.12.37.37,0,0,1,.1.17.78.78,0,0,1,0,.22.72.72,0,0,1,0,.22.54.54,0,0,1-.11.18.46.46,0,0,1-.16.11.54.54,0,0,1-.22,0Zm.82-.55a.64.64,0,0,0,0-.2.38.38,0,0,0-.09-.15.36.36,0,0,0-.14-.1.54.54,0,0,0-.19,0h-.29v1h.29a.38.38,0,0,0,.19,0,.3.3,0,0,0,.14-.1.38.38,0,0,0,.09-.15A.63.63,0,0,0,41.83,21Z"/><path class="cls-1" d="M42.82,20.41h.07l.47,1.11h-.08l-.16-.36h-.53l-.15.36h-.09Zm.28.68-.24-.58-.25.58Z"/><path class="cls-1" d="M44.55,20.6a.41.41,0,0,0-.31-.12.35.35,0,0,0-.23.06.21.21,0,0,0-.08.16.2.2,0,0,0,0,.09.09.09,0,0,0,.06.06l.1,0,.15,0,.16,0,.12.06a.3.3,0,0,1,.08.08.28.28,0,0,1,0,.13.21.21,0,0,1,0,.12.39.39,0,0,1-.08.1l-.13.05-.16,0a.6.6,0,0,1-.44-.17l0-.06a.57.57,0,0,0,.18.12.51.51,0,0,0,.22,0,.46.46,0,0,0,.23-.05.19.19,0,0,0,.08-.16.3.3,0,0,0,0-.1s0,0-.06-.06L44.37,21l-.16,0-.15,0a.33.33,0,0,1-.12-.05.27.27,0,0,1-.07-.08.36.36,0,0,1,0-.11.32.32,0,0,1,0-.14.24.24,0,0,1,.08-.09.27.27,0,0,1,.12-.06.41.41,0,0,1,.16,0,.54.54,0,0,1,.19,0,.51.51,0,0,1,.16.09Z"/><path class="cls-2" d="M4.52,11.25q16-4.77,31.92-9.52l5.28,11.8h.51L36.9,1.6a4.12,4.12,0,0,1,.59-.14,3.78,3.78,0,0,1,.36.65L41.06,9.3,43,13.53h.52L38.31,2a5.93,5.93,0,0,0-.3-.57c.61,0,.94.39,1.31,1.21,1.16,2.6,2.32,5.21,3.49,7.81l1.38,3.1h.52l-1.45-3.24c-1.16-2.6-2.33-5.2-3.49-7.81-.5-1.12-1-1.55-2.05-1.46A1.66,1.66,0,0,0,36.25.51C35.69-.1,35-.14,33.62.26Q17.51,5,1.42,9.86C.08,10.26-.27,10.86.2,12c.32.79.66,1.58,1,2.36s.7,1.6,1,2.4a1.35,1.35,0,0,0,1.19.91l.08-.4a.88.88,0,0,1-.81-.64c-.33-.8-.68-1.6-1-2.4S1,12.64.66,11.86s-.16-1.3.93-1.62Q17.68,5.43,33.79.63c1-.29,1.5-.33,1.91,0l-.61.16Q19,5.55,2.89,10.37c-1.35.4-1.69,1-1.23,2.12.33.79.67,1.57,1,2.35s.7,1.6,1,2.4a1.38,1.38,0,0,0,1.2.91L5,17.76a.93.93,0,0,1-.81-.64c-.33-.81-.68-1.61-1-2.41s-.68-1.56-1-2.35-.16-1.29.93-1.62q16.1-4.81,32.2-9.6A7.09,7.09,0,0,1,36,1a3.72,3.72,0,0,1,.24.41Q20.3,6.1,4.35,10.87c-1.34.41-1.69,1-1.22,2.13.32.78.66,1.56,1,2.34s.71,1.6,1,2.41a1.35,1.35,0,0,0,1.19.91l.08-.4a.89.89,0,0,1-.81-.64c-.33-.81-.69-1.61-1-2.42s-.68-1.55-1-2.33S3.43,11.58,4.52,11.25ZM37.17,1.11a4.32,4.32,0,0,0-.45.12,3,3,0,0,0-.18-.32A1.1,1.1,0,0,1,37.17,1.11Z"/></g></g></svg>