<?xml version="1.0" encoding="utf-8"?>
<!-- Generator: Adobe Illustrator 22.1.0, SVG Export Plug-In . SVG Version: 6.00 Build 0)  -->
<svg version="1.1" id="Capa_1" xmlns="http://www.w3.org/2000/svg" xmlns:xlink="http://www.w3.org/1999/xlink" x="0px" y="0px"
	 viewBox="0 0 136 25" style="enable-background:new 0 0 136 25;" xml:space="preserve">
<g>
	<path style="fill:#FFFFFF;" d="M6.9,14.2H6.7v2.2c0,0.8,0.1,1.4,0.4,1.7c0.3,0.3,0.8,0.5,1.6,0.5h10.2v3.8H7.8
		c-1.1,0-2-0.1-2.7-0.4c-0.7-0.3-1.3-0.7-1.8-1.1c-0.5-0.5-0.8-1.1-1-1.8c-0.2-0.7-0.3-1.5-0.3-2.3v-2.9c0-0.9,0.1-1.7,0.3-2.3
		c0.2-0.7,0.5-1.3,1-1.8c0.5-0.5,1.1-0.9,1.8-1.1C5.8,8.2,6.7,8,7.8,8H16c1.1,0,1.9,0.3,2.3,0.8c0.5,0.6,0.7,1.4,0.7,2.6v1.4
		c0,1.1-0.2,1.9-0.7,2.5c-0.5,0.6-1.2,0.9-2.3,0.9H7.7L6.9,14.2z M6.7,13.5h7.2c0.5,0,0.8-0.3,0.8-0.8v-0.5c0-0.3-0.1-0.5-0.2-0.6
		c-0.1-0.1-0.3-0.2-0.6-0.2H8.7c-0.7,0-1.2,0.2-1.5,0.5C6.8,12.1,6.7,12.6,6.7,13.5L6.7,13.5z"/>
	<path style="fill:#FFFFFF;" d="M21.1,8h4.7v8c0,0.8,0.2,1.3,0.5,1.7c0.3,0.3,0.9,0.5,1.7,0.5h4.3c0.8,0,1.4-0.2,1.7-0.5
		c0.3-0.3,0.5-0.9,0.5-1.6V8h4.7v8.6c0,0.9-0.1,1.7-0.3,2.3c-0.2,0.7-0.5,1.3-1,1.8c-0.5,0.5-1.1,0.9-1.8,1.1
		c-0.7,0.3-1.7,0.4-2.7,0.4h-6.5c-1.1,0-2-0.1-2.7-0.4c-0.7-0.3-1.3-0.7-1.8-1.1c-0.5-0.5-0.8-1.1-1-1.8c-0.2-0.7-0.3-1.5-0.3-2.3V8
		z"/>
	<path style="fill:#FFFFFF;" d="M53.7,14h-0.2v-2c0-0.2-0.1-0.3-0.3-0.3h-5.8c-0.4,0-0.7,0.1-0.9,0.3c-0.2,0.2-0.3,0.5-0.3,1v9.3
		h-4.7V12c0-1.2,0.3-2.2,0.9-2.9c0.6-0.7,1.6-1.1,3-1.1h11.6c0.5,0,0.7,0.2,0.7,0.7v3.7L53.7,14z"/>
	<path style="fill:#FFFFFF;" d="M77.9,16.6c0,0.9-0.1,1.7-0.3,2.3c-0.2,0.7-0.5,1.3-1,1.8c-0.5,0.5-1.1,0.9-1.8,1.1
		c-0.7,0.3-1.6,0.4-2.7,0.4h-6.9c-1.1,0-2-0.1-2.7-0.4c-0.7-0.3-1.3-0.7-1.8-1.1c-0.5-0.5-0.8-1.1-1-1.8c-0.2-0.7-0.3-1.5-0.3-2.3
		v-2.9c0-0.9,0.1-1.6,0.3-2.3c0.2-0.7,0.5-1.3,1-1.8c0.5-0.5,1.1-0.9,1.8-1.1C63.2,8.2,64.1,8,65.2,8h6.9c1.1,0,2,0.1,2.7,0.4
		c0.7,0.3,1.4,0.6,1.8,1.1c0.5,0.5,0.8,1.1,1,1.8c0.2,0.7,0.3,1.5,0.3,2.3V16.6z M71.2,18.1c0.7,0,1.3-0.1,1.6-0.4
		c0.3-0.3,0.4-0.9,0.4-1.7v-2c0-0.9-0.2-1.5-0.5-1.8c-0.3-0.3-0.8-0.5-1.5-0.5h-5.1c-0.7,0-1.3,0.2-1.5,0.5
		c-0.3,0.3-0.4,0.9-0.4,1.8v2c0,0.8,0.1,1.4,0.4,1.7c0.3,0.3,0.8,0.4,1.5,0.4H71.2z"/>
	<path style="fill:#E32213;" d="M80.1,22.3V2h4.7v20.3H80.1z"/>
	<path style="fill:#E32213;" d="M87.2,11.6V8h13.3c0.9,0,1.6,0.3,2.1,0.8c0.4,0.5,0.7,1.3,0.7,2.3v10.6c0,0.4-0.2,0.6-0.6,0.6H90.1
		c-0.5,0-1-0.1-1.4-0.2c-0.4-0.1-0.8-0.4-1-0.7c-0.3-0.3-0.5-0.7-0.7-1.2c-0.1-0.5-0.2-1.2-0.2-1.9v-1.1c0-1.4,0.3-2.3,0.9-2.9
		c0.6-0.6,1.4-0.9,2.4-0.9h7.3l0.9,2.1h0.2v-2.9c0-0.4-0.1-0.7-0.2-0.9c-0.2-0.2-0.4-0.3-0.7-0.3H87.2z M98.2,18.8
		c0.2,0,0.3-0.1,0.3-0.3v-2.2h-6.2c-0.3,0-0.5,0.1-0.7,0.2c-0.1,0.2-0.2,0.4-0.2,0.7v0.6c0,0.3,0.1,0.5,0.2,0.7
		c0.1,0.2,0.4,0.2,0.7,0.2H98.2z"/>
	<path style="fill:#E32213;" d="M120.1,8h7.4c1.1,0,2,0.1,2.7,0.4c0.7,0.3,1.3,0.6,1.8,1.1c0.5,0.5,0.8,1.1,1,1.8
		c0.2,0.7,0.3,1.5,0.3,2.3v8.6h-4.7V14c0-0.8-0.2-1.4-0.5-1.7c-0.3-0.3-0.8-0.5-1.5-0.5h-4.4c0.2,0.5,0.3,1.2,0.3,1.9v8.6h-4.7V14
		c0-0.8-0.2-1.4-0.5-1.7c-0.3-0.3-0.8-0.5-1.5-0.5h-4.5l-0.8-2.1h-0.2v12.6h-4.7V8h11.1c1,0,1.9,0.1,2.6,0.4
		c0.7,0.3,1.3,0.6,1.7,1.1l0.1-0.1c-0.2-0.2-0.3-0.4-0.5-0.6c-0.2-0.2-0.3-0.4-0.4-0.6V8z"/>
</g>
</svg>
